# AST/ASF file generated using VICON BodyLanguage
# -----------------------------------------------
:version 1.10
:name VICON
:units
  mass 1.0
  length 0.45
  angle deg
:documentation
   .ast/.asf automatically generated from VICON data using
   VICON BodyBuilder and BodyLanguage model FoxedUp or BRILLIANT.MOD
:root
   order TX TY TZ RX RY RZ
   axis XYZ
   position 0 0 0  
   orientation 0 0 0 
:bonedata
  begin
     id 1 
     name lhipjoint
     direction 0.690799 -0.707083 0.151096 
     length 2.54797 
     axis 0 0 0  XYZ
  end
  begin
     id 2 
     name lfemur
     direction 0.34202 -0.939693 0  
     length 7.21646  
     axis 0 0 20  XYZ
    dof rx ry rz
    limits (-160.0 20.0)
           (-70.0 70.0)
           (-60.0 70.0)
  end
  begin
     id 3 
     name ltibia
     direction 0.34202 -0.939693 0   
     length 8.16759   
     axis 0 0 20   XYZ
    dof rx
    limits (-10.0 170.0)
  end
  begin
     id 4 
     name lfoot
     direction 0.0487203 -0.133858 0.989802   
     length 1.93375   
     axis -90 7.62852e-016 20   XYZ
    dof rx rz
    limits (-45.0 90.0)
           (-70.0 20.0)
  end
  begin
     id 5 
     name ltoes
     direction 1.53453e-011 -4.21783e-011 1   
     length 0.979747   
     axis -90 7.62852e-016 20   XYZ
    dof rx
    limits (-90.0 20.0)
  end
  begin
     id 6 
     name rhipjoint
     direction -0.694693 -0.703425 0.150315   
     length 2.56122  
     axis 0 0 0  XYZ 
  end
  begin
     id 7 
     name rfemur
     direction -0.34202 -0.939693 0   
     length 7.36786   
     axis 0 0 -20   XYZ
    dof rx ry rz
    limits (-160.0 20.0)
           (-70.0 70.0)
           (-70.0 60.0)
  end
  begin
     id 8 
     name rtibia
     direction -0.34202 -0.939693 0   
     length 8.07288   
     axis 0 0 -20   XYZ
    dof rx
    limits (-10.0 170.0)
 end
 begin
     id 9 
     name rfoot
     direction -0.0428397 -0.117701 0.992125   
     length 1.88295  
     axis -90 -7.62852e-016 -20   XYZ
    dof rx rz
    limits (-45.0 90.0)
           (-20.0 70.0)
  end
  begin
     id 10 
     name rtoes
     direction -1.53456e-011 -4.2187e-011 1   
     length 0.955578   
     axis -90 -7.62852e-016 -20   XYZ
    dof rx
    limits (-90.0 20.0)
  end
  begin
     id 11 
     name lowerback
     direction 0.0288145 0.999398 -0.0193241   
     length 1.92149   
     axis 0 0 0   XYZ
    dof rx ry rz
    limits (-20.0 45.0)
           (-30.0 30.0)
           (-30.0 30.0)
  end
  begin
     id 12 
     name upperback
     direction 0.0233784 0.998099 0.0570278   
     length 1.90435   
     axis 0 0 0   XYZ
    dof rx ry rz
    limits (-20.0 45.0)
           (-30.0 30.0)
           (-30.0 30.0)
  end
  begin
     id 13 
     name thorax
     direction 0.0096694 0.997833 0.0650817   
     length 1.9111   
     axis 0 0 0   XYZ
    dof rx ry rz
    limits (-20.0 45.0)
           (-30.0 30.0)
           (-30.0 30.0)
  end
  begin
     id 14 
     name lowerneck
     direction 0.00516803 0.999916 0.0118722   
     length 1.74664   
     axis 0 0 0   XYZ
    dof rx ry rz
    limits (-20.0 45.0)
           (-30.0 30.0)
           (-30.0 30.0)
  end
  begin
     id 15 
     name upperneck
     direction -0.0510851 0.996117 -0.071696   
     length 1.68498   
     axis 0 0 0   XYZ
    dof rx ry rz
    limits (-20.0 45.0)
           (-30.0 30.0)
           (-30.0 30.0)
  end
  begin
     id 16
     name head
     direction -0.019188 0.999436 -0.0275702  
     length 1.83483  
     axis 0 0 0   XYZ
    dof rx ry rz
    limits (-20.0 45.0)
           (-30.0 30.0)
           (-30.0 30.0)
  end
  begin
     id 17 
     name lclavicle
     direction 0.967006 0.248456 -0.0562957  
     length 3.39395  
     axis 0 0 0   XYZ
    dof ry rz
    limits (-20.0 10.0)
           (0.0 20.0)
  end
  begin
     id 18 
     name lhumerus
     direction 1 -4.48962e-011 -5.62711e-019   
     length 5.24318   
     axis 180 -30 -90   XYZ
    dof rx ry rz
    limits (-60.0 90.0)
           (-90.0 90.0)
           (-90.0 90.0)
  end
  begin
     id 19
     name lradius
     direction 1 -4.48966e-011 7.90625e-027   
     length 2.98999   
     axis 180 -30 -90   XYZ
    dof rx
    limits (-10.0 170.0)
  end
  begin
     id 20
     name lwrist
     direction 1 -4.48959e-011 1.61068e-026   
     length 1.49499   
     axis -9.31229e-015 90 90   XYZ
    dof ry
    limits (-180.0 0.0)
 end
  begin
     id 21 
     name lhand
     direction 1 -4.49017e-011 3.22136e-026   
     length 0.726745   
     axis -2.0555e-014 90 90   XYZ
    dof rx rz
    limits (-90.0 90.0)
           (-45.0 45.0)
  end
  begin
     id 22 
     name lfingers
     direction 1 -4.4898e-011 6.44272e-026   
     length 0.58592   
     axis -4.11101e-014 90 90   XYZ
    dof rx
    limits (0.0 90.0)
  end
  begin
     id 23
     name lthumb
     direction 0.707107 -6.34922e-011 0.707107   
     length 0.841268   
     axis -90 45 2.85299e-015   XYZ
    dof rx rz
    limits (-45.0 45.0)
           (-45.0 45.0)
  end
  begin
     id 24 
     name rclavicle
     direction -0.972232 0.230238 0.0419005   
     length 3.40416  
     axis 0 0 0   XYZ 
    dof ry rz
    limits (-10.0 20.0)
           (-20.0 0.0)
  end
  begin
     id 25 
     name rhumerus
     direction -1 -4.48976e-011 2.48487e-027  
     length 5.37045   
     axis 180 30 90   XYZ
    dof rx ry rz
    limits (-90.0 60.0)
           (-90.0 90.0)
           (-90.0 90.0)
  end
  begin
     id 26 
     name rradius
     direction -1 -4.48942e-011 7.87951e-027   
     length 2.92792   
     axis 180 30 90   XYZ
    dof rx
    limits (-10.0 170.0)
  end
  begin
     id 27 
     name rwrist
     direction -1 -4.48969e-011 1.61068e-026   
     length 1.46396   
     axis -9.31229e-015 -90 -90   XYZ
    dof ry
    limits (-180.0 0.0)
  end
  begin
     id 28
     name rhand
     direction -1 -4.49043e-011 3.22136e-026   
     length 0.784497   
     axis -2.0555e-014 -90 -90   XYZ
    dof rx rz
    limits (-90.0 90.0)
           (-45.0 45.0)
  end
  begin
     id 29
     name rfingers
     direction -1 -4.48823e-011 6.44272e-026   
     length 0.632482   
     axis -4.11101e-014 -90 -90   XYZ
    dof rx
    limits (0.0 90.0)
  end
  begin
     id 30
     name rthumb
     direction -0.707107 -6.34923e-011 0.707107   
     length 0.908121   
     axis -90 -45 -2.85299e-015   XYZ
    dof rx rz
    limits (-45.0 45.0)
           (-45.0 45.0)
  end
:hierarchy
  begin
    root lhipjoint rhipjoint lowerback
    lhipjoint lfemur
    lfemur ltibia
    ltibia lfoot
    lfoot ltoes
    rhipjoint rfemur
    rfemur rtibia
    rtibia rfoot
    rfoot rtoes
    lowerback upperback
    upperback thorax
    thorax lowerneck lclavicle rclavicle
    lowerneck upperneck
    upperneck head
    lclavicle lhumerus
    lhumerus lradius
    lradius lwrist
    lwrist lhand lthumb
    lhand lfingers
    rclavicle rhumerus
    rhumerus rradius
    rradius rwrist
    rwrist rhand rthumb
    rhand rfingers
  end

#!OML:ASF E:\Style6\Style6.ASF
:FULLY-SPECIFIED
:DEGREES
624
root 0.215351 16.2998 -0.518403 18.1991 4.55319 0.225978
lowerback 11.686 -1.70461 2.09355
upperback 1.00499 -1.69968 4.81642
thorax -5.41867 -0.827893 4.16627
lowerneck 12.8379 -5.56566 2.74166
upperneck -6.50087 -7.68537 -6.9893
head -4.41662 -3.44696 -2.00475
rclavicle 6.36111e-015 0
rhumerus -65.0864 12.3421 -76.8142
rradius 125.892
rwrist -24.0483
rhand 55.7353 -0.047784
rfingers 7.12502
rthumb 73.1617 18.4185
lclavicle 6.36111e-015 0
lhumerus -68.6721 -12.0316 90.3579
lradius 116.342
lwrist 41.3792
lhand 30.0952 44.8915
lfingers 7.12502
lthumb 53.7925 63.8689
rfemur -55.1545 -22.5947 27.4375
rtibia 60.4192
rfoot -17.7436 6.46737
rtoes -3.31057
lfemur -52.7146 5.1236 -19.5293
ltibia 60.4887
lfoot -20.0977 1.77741
ltoes -21.3301
625
root 0.2279 16.2861 -0.555724 18.1195 4.28531 0.308709
lowerback 11.8104 -1.6064 2.11397
upperback 1.50731 -1.5808 4.89643
thorax -4.96272 -0.77384 4.20846
lowerneck 12.9711 -5.68097 3.10288
upperneck -5.41587 -7.73826 -7.37409
head -4.138 -3.47744 -2.18451
rclavicle 2.38542e-014 -1.27222e-014
rhumerus -64.6015 12.1284 -76.3859
rradius 125.896
rwrist -23.6917
rhand 55.1958 0.0133258
rfingers 7.12502
rthumb 72.9141 16.9082
lclavicle 2.38542e-014 -1.27222e-014
lhumerus -68.1367 -12.4192 90.0934
lradius 116.235
lwrist 41.3855
lhand 29.6545 45.2205
lfingers 7.12502
lthumb 53.3961 64.4587
rfemur -55.3082 -22.4144 27.2375
rtibia 60.5451
rfoot -17.6121 6.51989
rtoes -3.05023
lfemur -52.8307 5.3026 -19.7467
ltibia 60.6393
lfoot -20.0233 1.75248
ltoes -21.1185
626
root 0.241862 16.2716 -0.588744 18.1706 4.05511 0.407901
lowerback 11.8254 -1.54424 2.13436
upperback 1.93078 -1.51202 4.98769
thorax -4.52706 -0.744005 4.26981
lowerneck 13.4435 -5.77345 3.1328
upperneck -4.68155 -7.79101 -7.34901
head -3.9912 -3.50742 -2.17501
rclavicle -9.54166e-015 1.11319e-014
rhumerus -64.2338 11.9649 -75.9707
rradius 125.99
rwrist -23.2561
rhand 54.611 0.208738
rfingers 7.12502
rthumb 72.6312 15.4528
lclavicle -9.54166e-015 1.11319e-014
lhumerus -67.8851 -12.6827 89.8498
lradius 116.29
lwrist 41.3976
lhand 29.426 45.3913
lfingers 7.12502
lthumb 53.1902 64.7625
rfemur -55.6006 -22.2791 27.0771
rtibia 60.66
rfoot -17.4064 6.7104
rtoes -1.83724
lfemur -53.056 5.44935 -19.9928
ltibia 60.7658
lfoot -19.9999 1.73267
ltoes -20.8385
627
root 0.257421 16.2627 -0.614529 18.2902 3.94634 0.436372
lowerback 11.8233 -1.59365 2.24135
upperback 2.24992 -1.57302 5.14442
thorax -4.18532 -0.778053 4.37501
lowerneck 14.1903 -5.78202 3.03694
upperneck -4.25606 -7.75915 -7.21403
head -3.96803 -3.48681 -2.10933
rclavicle -3.73715e-014 2.54444e-014
rhumerus -63.9477 12.0201 -75.5322
rradius 126.091
rwrist -22.8769
rhand 53.9835 0.654129
rfingers 7.12502
rthumb 72.3116 14.1882
lclavicle -3.73715e-014 2.54444e-014
lhumerus -67.9286 -12.5114 89.6685
lradius 116.44
lwrist 41.3196
lhand 29.3474 45.0434
lfingers 7.12502
lthumb 53.1193 64.4599
rfemur -55.898 -22.2419 27.0459
rtibia 60.7482
rfoot -17.2442 6.97862
rtoes -0.260585
lfemur -53.32 5.513 -20.1293
ltibia 60.8609
lfoot -20.0041 1.65213
ltoes -20.4958
628
root 0.272552 16.2569 -0.636005 18.5838 3.86153 0.510036
lowerback 11.7343 -1.66961 2.27981
upperback 2.41563 -1.67472 5.31608
thorax -3.95209 -0.830277 4.54218
lowerneck 15.0884 -5.76605 2.9687
upperneck -3.94329 -7.69566 -7.08284
head -4.0019 -3.44568 -2.04742
rclavicle -2.38542e-015 -1.59028e-015
rhumerus -63.907 12.1265 -75.103
rradius 126.286
rwrist -22.5214
rhand 54.0555 0.64865
rfingers 7.12502
rthumb 72.3491 14.3759
lclavicle -2.38542e-015 -1.59028e-015
lhumerus -68.2185 -12.0422 89.5509
lradius 116.699
lwrist 41.2517
lhand 29.166 44.6363
lfingers 7.12502
lthumb 52.9556 64.1567
rfemur -56.3845 -22.2431 27.0714
rtibia 60.8289
rfoot -17.1297 7.28829
rtoes 1.66162
lfemur -53.738 5.53506 -20.307
ltibia 60.9176
lfoot -20.012 1.51299
ltoes -19.9666
629
root 0.28754 16.2483 -0.657382 19.0083 3.72138 0.627709
lowerback 11.5315 -1.64219 2.35552
upperback 2.54153 -1.64464 5.40063
thorax -3.70958 -0.817969 4.57212
lowerneck 15.8545 -5.85972 2.81783
upperneck -3.57832 -7.76273 -6.60973
head -3.98436 -3.49067 -1.86094
rclavicle -5.56597e-015 2.38542e-014
rhumerus -64.0529 11.8067 -74.6784
rradius 126.538
rwrist -22.1283
rhand 54.8522 0.130419
rfingers 7.12502
rthumb 72.7497 16.0487
lclavicle -5.56597e-015 2.38542e-014
lhumerus -68.5309 -11.8055 89.52
lradius 117.109
lwrist 41.4223
lhand 28.5829 44.4571
lfingers 7.12502
lthumb 52.4285 64.3047
rfemur -57.0541 -22.177 27.1089
rtibia 60.9203
rfoot -17.0276 7.31801
rtoes 1.98045
lfemur -54.2867 5.61198 -20.5655
ltibia 60.9449
lfoot -19.9855 1.35387
ltoes -19.7073
630
root 0.301108 16.2395 -0.67638 19.4202 3.59779 0.765545
lowerback 11.3273 -1.5386 2.52802
upperback 2.69686 -1.51018 5.36498
thorax -3.44799 -0.754647 4.40409
lowerneck 15.8731 -6.11057 3.04781
upperneck -2.83274 -7.97143 -6.26773
head -3.75849 -3.62593 -1.78484
rclavicle -3.18055e-015 1.74931e-014
rhumerus -64.27 10.9828 -74.3396
rradius 126.748
rwrist -21.852
rhand 55.0402 -0.113665
rfingers 7.12502
rthumb 72.8403 16.3366
lclavicle -3.18055e-015 1.74931e-014
lhumerus -68.7635 -11.8477 89.4944
lradius 117.476
lwrist 41.86
lhand 27.9681 44.0228
lfingers 7.12502
lthumb 51.8713 64.2046
rfemur -57.7278 -22.1702 27.1536
rtibia 61.0335
rfoot -17.0315 7.15722
rtoes 0.284989
lfemur -54.8011 5.70173 -20.8503
ltibia 60.9414
lfoot -19.9439 1.17404
ltoes -19.6521
631
root 0.313825 16.232 -0.690573 19.8307 3.52691 0.885474
lowerback 11.2171 -1.44663 2.73634
upperback 2.72341 -1.37473 5.32055
thorax -3.37326 -0.689224 4.21488
lowerneck 15.5199 -6.36019 3.6078
upperneck -1.88352 -8.14786 -6.26633
head -3.44126 -3.739 -1.88012
rclavicle 3.18055e-015 2.06736e-014
rhumerus -64.7088 10.132 -74.0696
rradius 126.922
rwrist -21.8631
rhand 54.3604 -0.136534
rfingers 7.12502
rthumb 72.5055 14.4172
lclavicle 3.18055e-015 2.06736e-014
lhumerus -69.2063 -11.7862 89.553
lradius 117.803
lwrist 42.3993
lhand 27.4931 43.7434
lfingers 7.12502
lthumb 51.4397 64.1761
rfemur -58.3715 -22.2207 27.2219
rtibia 61.1587
rfoot -17.0209 7.21287
rtoes 0.104083
lfemur -55.291 5.74289 -21.0939
ltibia 60.9239
lfoot -19.8814 1.07011
ltoes -19.9387
632
root 0.327329 16.2227 -0.704915 20.2273 3.43429 1.02218
lowerback 11.2935 -1.39603 2.8753
upperback 2.57955 -1.27904 5.30227
thorax -3.57458 -0.641965 4.10998
lowerneck 15.3637 -6.4943 3.91355
upperneck -1.12525 -8.21865 -6.10762
head -3.192 -3.79555 -1.8903
rclavicle 5.56597e-015 -2.38542e-014
rhumerus -65.3225 9.55458 -73.7608
rradius 127.023
rwrist -22.1239
rhand 53.5952 -0.139978
rfingers 7.12502
rthumb 72.106 12.3677
lclavicle 5.56597e-015 -2.38542e-014
lhumerus -69.9204 -11.4382 89.7253
lradius 118.101
lwrist 42.943
lhand 27.1296 43.5583
lfingers 7.12502
lthumb 51.1088 64.1788
rfemur -59 -22.2569 27.2492
rtibia 61.2998
rfoot -17.017 7.34145
rtoes 0.371434
lfemur -55.7611 5.79758 -21.3722
ltibia 60.9209
lfoot -19.844 0.980576
ltoes -20.1891
633
root 0.339451 16.2102 -0.720254 20.5994 3.32834 1.20846
lowerback 11.3969 -1.33843 2.9472
upperback 2.39806 -1.179 5.25271
thorax -3.82937 -0.592382 4.01082
lowerneck 15.0829 -6.64149 4.18506
upperneck -0.23636 -8.31878 -5.72115
head -3.21812 -3.88526 -2.0085
rclavicle 7.15625e-015 -3.33958e-014
rhumerus -65.9541 8.96202 -73.4774
rradius 127.088
rwrist -22.6347
rhand 52.3783 0.217813
rfingers 7.12502
rthumb 71.4248 9.66366
lclavicle 7.15625e-015 -3.33958e-014
lhumerus -70.6105 -11.0771 89.9186
lradius 118.301
lwrist 43.6048
lhand 26.7622 43.5306
lfingers 7.12502
lthumb 50.7739 64.3373
rfemur -59.6108 -22.3043 27.2233
rtibia 61.4571
rfoot -17.0128 7.35128
rtoes -0.12189
lfemur -56.2288 5.90994 -21.7344
ltibia 60.9505
lfoot -19.8394 0.839728
ltoes -20.4185
